<mxfile host="Electron" modified="2024-08-13T05:47:25.155Z" agent="Mozilla/5.0 (Windows NT 10.0; Win64; x64) AppleWebKit/537.36 (KHTML, like Gecko) draw.io/24.2.5 Chrome/120.0.6099.109 Electron/28.1.0 Safari/537.36" etag="6jojksVwIl_wEUnMxFOm" version="24.2.5" type="device">
  <diagram name="Page-1" id="MnvTv9DOR8wBDymMynOI">
    <mxGraphModel dx="1346" dy="2943" grid="1" gridSize="10" guides="1" tooltips="1" connect="1" arrows="1" fold="1" page="1" pageScale="1" pageWidth="827" pageHeight="1169" math="0" shadow="0">
      <root>
        <mxCell id="0" />
        <mxCell id="1" parent="0" />
        <mxCell id="UWP8bIiaMO9ewAU7Xk2l-510" value="" style="rounded=1;whiteSpace=wrap;html=1;" parent="1" vertex="1">
          <mxGeometry x="2040" y="-765" width="759" height="310" as="geometry" />
        </mxCell>
        <mxCell id="UWP8bIiaMO9ewAU7Xk2l-511" value="" style="ellipse;whiteSpace=wrap;html=1;aspect=fixed;" parent="1" vertex="1">
          <mxGeometry x="2094.5" y="-625" width="40" height="40" as="geometry" />
        </mxCell>
        <mxCell id="UWP8bIiaMO9ewAU7Xk2l-512" value="" style="ellipse;whiteSpace=wrap;html=1;aspect=fixed;" parent="1" vertex="1">
          <mxGeometry x="2414.5" y="-625" width="40" height="40" as="geometry" />
        </mxCell>
        <mxCell id="UWP8bIiaMO9ewAU7Xk2l-513" value="" style="ellipse;whiteSpace=wrap;html=1;aspect=fixed;" parent="1" vertex="1">
          <mxGeometry x="2154.5" y="-745" width="40" height="40" as="geometry" />
        </mxCell>
        <mxCell id="UWP8bIiaMO9ewAU7Xk2l-514" value="" style="ellipse;whiteSpace=wrap;html=1;aspect=fixed;" parent="1" vertex="1">
          <mxGeometry x="2354.5" y="-745" width="40" height="40" as="geometry" />
        </mxCell>
        <mxCell id="UWP8bIiaMO9ewAU7Xk2l-515" value="" style="ellipse;whiteSpace=wrap;html=1;aspect=fixed;" parent="1" vertex="1">
          <mxGeometry x="2254.5" y="-625" width="40" height="40" as="geometry" />
        </mxCell>
        <mxCell id="UWP8bIiaMO9ewAU7Xk2l-516" value="" style="ellipse;whiteSpace=wrap;html=1;aspect=fixed;" parent="1" vertex="1">
          <mxGeometry x="2254.5" y="-745" width="40" height="40" as="geometry" />
        </mxCell>
        <mxCell id="UWP8bIiaMO9ewAU7Xk2l-517" value="" style="endArrow=none;dashed=1;html=1;dashPattern=1 3;strokeWidth=2;rounded=0;" parent="1" edge="1">
          <mxGeometry width="50" height="50" relative="1" as="geometry">
            <mxPoint x="2144.5" y="-605" as="sourcePoint" />
            <mxPoint x="2244.5" y="-605" as="targetPoint" />
          </mxGeometry>
        </mxCell>
        <mxCell id="UWP8bIiaMO9ewAU7Xk2l-518" value="" style="endArrow=none;dashed=1;html=1;dashPattern=1 3;strokeWidth=2;rounded=0;" parent="1" edge="1">
          <mxGeometry width="50" height="50" relative="1" as="geometry">
            <mxPoint x="2304.5" y="-605.25" as="sourcePoint" />
            <mxPoint x="2404.5" y="-605.25" as="targetPoint" />
          </mxGeometry>
        </mxCell>
        <mxCell id="UWP8bIiaMO9ewAU7Xk2l-519" value="" style="endArrow=none;dashed=1;html=1;dashPattern=1 3;strokeWidth=2;rounded=0;" parent="1" edge="1">
          <mxGeometry width="50" height="50" relative="1" as="geometry">
            <mxPoint x="2204.5" y="-725.1199999999999" as="sourcePoint" />
            <mxPoint x="2244.5" y="-725" as="targetPoint" />
          </mxGeometry>
        </mxCell>
        <mxCell id="UWP8bIiaMO9ewAU7Xk2l-520" value="" style="endArrow=none;dashed=1;html=1;dashPattern=1 3;strokeWidth=2;rounded=0;" parent="1" edge="1">
          <mxGeometry width="50" height="50" relative="1" as="geometry">
            <mxPoint x="2304.5" y="-725.21" as="sourcePoint" />
            <mxPoint x="2344.5" y="-725" as="targetPoint" />
          </mxGeometry>
        </mxCell>
        <mxCell id="UWP8bIiaMO9ewAU7Xk2l-521" value="" style="endArrow=none;html=1;rounded=0;exitX=0.5;exitY=0;exitDx=0;exitDy=0;entryX=0.5;entryY=1;entryDx=0;entryDy=0;" parent="1" source="UWP8bIiaMO9ewAU7Xk2l-511" target="UWP8bIiaMO9ewAU7Xk2l-513" edge="1">
          <mxGeometry width="50" height="50" relative="1" as="geometry">
            <mxPoint x="2124.5" y="-695" as="sourcePoint" />
            <mxPoint x="2154.5" y="-705" as="targetPoint" />
          </mxGeometry>
        </mxCell>
        <mxCell id="UWP8bIiaMO9ewAU7Xk2l-522" value="" style="endArrow=none;html=1;rounded=0;exitX=0.5;exitY=0;exitDx=0;exitDy=0;entryX=0.5;entryY=1;entryDx=0;entryDy=0;" parent="1" source="UWP8bIiaMO9ewAU7Xk2l-511" target="UWP8bIiaMO9ewAU7Xk2l-516" edge="1">
          <mxGeometry width="50" height="50" relative="1" as="geometry">
            <mxPoint x="2124.5" y="-615" as="sourcePoint" />
            <mxPoint x="2164.5" y="-695" as="targetPoint" />
          </mxGeometry>
        </mxCell>
        <mxCell id="UWP8bIiaMO9ewAU7Xk2l-523" value="" style="endArrow=none;html=1;rounded=0;exitX=0.5;exitY=0;exitDx=0;exitDy=0;entryX=0.5;entryY=1;entryDx=0;entryDy=0;" parent="1" source="UWP8bIiaMO9ewAU7Xk2l-511" target="UWP8bIiaMO9ewAU7Xk2l-514" edge="1">
          <mxGeometry width="50" height="50" relative="1" as="geometry">
            <mxPoint x="2124.5" y="-615" as="sourcePoint" />
            <mxPoint x="2284.5" y="-695" as="targetPoint" />
          </mxGeometry>
        </mxCell>
        <mxCell id="UWP8bIiaMO9ewAU7Xk2l-524" value="" style="endArrow=none;html=1;rounded=0;exitX=0.5;exitY=1;exitDx=0;exitDy=0;entryX=0.5;entryY=0;entryDx=0;entryDy=0;" parent="1" source="UWP8bIiaMO9ewAU7Xk2l-513" target="UWP8bIiaMO9ewAU7Xk2l-515" edge="1">
          <mxGeometry width="50" height="50" relative="1" as="geometry">
            <mxPoint x="2124.5" y="-615" as="sourcePoint" />
            <mxPoint x="2384.5" y="-695" as="targetPoint" />
          </mxGeometry>
        </mxCell>
        <mxCell id="UWP8bIiaMO9ewAU7Xk2l-525" value="" style="endArrow=none;html=1;rounded=0;exitX=0.5;exitY=1;exitDx=0;exitDy=0;entryX=0.5;entryY=0;entryDx=0;entryDy=0;" parent="1" source="UWP8bIiaMO9ewAU7Xk2l-514" target="UWP8bIiaMO9ewAU7Xk2l-515" edge="1">
          <mxGeometry width="50" height="50" relative="1" as="geometry">
            <mxPoint x="2184.5" y="-695" as="sourcePoint" />
            <mxPoint x="2284.5" y="-615" as="targetPoint" />
          </mxGeometry>
        </mxCell>
        <mxCell id="UWP8bIiaMO9ewAU7Xk2l-526" value="" style="endArrow=none;html=1;rounded=0;exitX=0.5;exitY=0;exitDx=0;exitDy=0;entryX=0.5;entryY=1;entryDx=0;entryDy=0;" parent="1" source="UWP8bIiaMO9ewAU7Xk2l-515" target="UWP8bIiaMO9ewAU7Xk2l-516" edge="1">
          <mxGeometry width="50" height="50" relative="1" as="geometry">
            <mxPoint x="2384.5" y="-695" as="sourcePoint" />
            <mxPoint x="2284.5" y="-615" as="targetPoint" />
          </mxGeometry>
        </mxCell>
        <mxCell id="UWP8bIiaMO9ewAU7Xk2l-527" value="" style="endArrow=none;html=1;rounded=0;exitX=0.5;exitY=0;exitDx=0;exitDy=0;entryX=0.5;entryY=1;entryDx=0;entryDy=0;" parent="1" source="UWP8bIiaMO9ewAU7Xk2l-512" target="UWP8bIiaMO9ewAU7Xk2l-516" edge="1">
          <mxGeometry width="50" height="50" relative="1" as="geometry">
            <mxPoint x="2384.5" y="-695" as="sourcePoint" />
            <mxPoint x="2284.5" y="-615" as="targetPoint" />
          </mxGeometry>
        </mxCell>
        <mxCell id="UWP8bIiaMO9ewAU7Xk2l-528" value="" style="endArrow=none;html=1;rounded=0;entryX=0.5;entryY=1;entryDx=0;entryDy=0;" parent="1" target="UWP8bIiaMO9ewAU7Xk2l-514" edge="1">
          <mxGeometry width="50" height="50" relative="1" as="geometry">
            <mxPoint x="2434.5" y="-625" as="sourcePoint" />
            <mxPoint x="2284.5" y="-695" as="targetPoint" />
          </mxGeometry>
        </mxCell>
        <mxCell id="UWP8bIiaMO9ewAU7Xk2l-529" value="" style="endArrow=none;html=1;rounded=0;entryX=0.5;entryY=1;entryDx=0;entryDy=0;" parent="1" target="UWP8bIiaMO9ewAU7Xk2l-513" edge="1">
          <mxGeometry width="50" height="50" relative="1" as="geometry">
            <mxPoint x="2434.5" y="-625" as="sourcePoint" />
            <mxPoint x="2384.5" y="-695" as="targetPoint" />
          </mxGeometry>
        </mxCell>
        <mxCell id="UWP8bIiaMO9ewAU7Xk2l-530" value="&lt;b&gt;&lt;font style=&quot;font-size: 24px;&quot;&gt;hidden layer2 (8 neurons)&lt;/font&gt;&lt;/b&gt;" style="text;html=1;align=center;verticalAlign=middle;whiteSpace=wrap;rounded=0;" parent="1" vertex="1">
          <mxGeometry x="2454.5" y="-745" width="360" height="30" as="geometry" />
        </mxCell>
        <mxCell id="UWP8bIiaMO9ewAU7Xk2l-531" value="&lt;b&gt;&lt;font style=&quot;font-size: 24px;&quot;&gt;hidden layer1 (16 neurons)&lt;/font&gt;&lt;/b&gt;" style="text;html=1;align=center;verticalAlign=middle;whiteSpace=wrap;rounded=0;" parent="1" vertex="1">
          <mxGeometry x="2454.5" y="-620" width="360" height="30" as="geometry" />
        </mxCell>
        <mxCell id="UWP8bIiaMO9ewAU7Xk2l-532" value="" style="ellipse;whiteSpace=wrap;html=1;aspect=fixed;" parent="1" vertex="1">
          <mxGeometry x="2094.5" y="-505" width="40" height="40" as="geometry" />
        </mxCell>
        <mxCell id="UWP8bIiaMO9ewAU7Xk2l-533" value="" style="ellipse;whiteSpace=wrap;html=1;aspect=fixed;" parent="1" vertex="1">
          <mxGeometry x="2414.5" y="-505" width="40" height="40" as="geometry" />
        </mxCell>
        <mxCell id="UWP8bIiaMO9ewAU7Xk2l-534" value="" style="ellipse;whiteSpace=wrap;html=1;aspect=fixed;" parent="1" vertex="1">
          <mxGeometry x="2254.5" y="-505" width="40" height="40" as="geometry" />
        </mxCell>
        <mxCell id="UWP8bIiaMO9ewAU7Xk2l-535" value="" style="endArrow=none;dashed=1;html=1;dashPattern=1 3;strokeWidth=2;rounded=0;" parent="1" edge="1">
          <mxGeometry width="50" height="50" relative="1" as="geometry">
            <mxPoint x="2144.5" y="-485" as="sourcePoint" />
            <mxPoint x="2244.5" y="-485" as="targetPoint" />
          </mxGeometry>
        </mxCell>
        <mxCell id="UWP8bIiaMO9ewAU7Xk2l-536" value="" style="endArrow=none;dashed=1;html=1;dashPattern=1 3;strokeWidth=2;rounded=0;" parent="1" edge="1">
          <mxGeometry width="50" height="50" relative="1" as="geometry">
            <mxPoint x="2304.5" y="-485.25" as="sourcePoint" />
            <mxPoint x="2404.5" y="-485.25" as="targetPoint" />
          </mxGeometry>
        </mxCell>
        <mxCell id="UWP8bIiaMO9ewAU7Xk2l-537" value="" style="endArrow=none;html=1;rounded=0;exitX=0.5;exitY=0;exitDx=0;exitDy=0;entryX=0.5;entryY=1;entryDx=0;entryDy=0;" parent="1" source="UWP8bIiaMO9ewAU7Xk2l-532" target="UWP8bIiaMO9ewAU7Xk2l-515" edge="1">
          <mxGeometry width="50" height="50" relative="1" as="geometry">
            <mxPoint x="2124.5" y="-615" as="sourcePoint" />
            <mxPoint x="2384.5" y="-695" as="targetPoint" />
          </mxGeometry>
        </mxCell>
        <mxCell id="UWP8bIiaMO9ewAU7Xk2l-538" value="" style="endArrow=none;html=1;rounded=0;exitX=0.5;exitY=0;exitDx=0;exitDy=0;entryX=0.5;entryY=1;entryDx=0;entryDy=0;" parent="1" source="UWP8bIiaMO9ewAU7Xk2l-532" target="UWP8bIiaMO9ewAU7Xk2l-512" edge="1">
          <mxGeometry width="50" height="50" relative="1" as="geometry">
            <mxPoint x="2124.5" y="-495" as="sourcePoint" />
            <mxPoint x="2284.5" y="-575" as="targetPoint" />
          </mxGeometry>
        </mxCell>
        <mxCell id="UWP8bIiaMO9ewAU7Xk2l-539" value="" style="endArrow=none;html=1;rounded=0;entryX=0.5;entryY=1;entryDx=0;entryDy=0;" parent="1" target="UWP8bIiaMO9ewAU7Xk2l-511" edge="1">
          <mxGeometry width="50" height="50" relative="1" as="geometry">
            <mxPoint x="2114.5" y="-505" as="sourcePoint" />
            <mxPoint x="2444.5" y="-575" as="targetPoint" />
          </mxGeometry>
        </mxCell>
        <mxCell id="UWP8bIiaMO9ewAU7Xk2l-540" value="" style="endArrow=none;html=1;rounded=0;entryX=0.5;entryY=1;entryDx=0;entryDy=0;exitX=0.5;exitY=0;exitDx=0;exitDy=0;" parent="1" source="UWP8bIiaMO9ewAU7Xk2l-534" target="UWP8bIiaMO9ewAU7Xk2l-515" edge="1">
          <mxGeometry width="50" height="50" relative="1" as="geometry">
            <mxPoint x="2124.5" y="-495" as="sourcePoint" />
            <mxPoint x="2124.5" y="-575" as="targetPoint" />
          </mxGeometry>
        </mxCell>
        <mxCell id="UWP8bIiaMO9ewAU7Xk2l-541" value="" style="endArrow=none;html=1;rounded=0;entryX=0.5;entryY=1;entryDx=0;entryDy=0;exitX=0.5;exitY=0;exitDx=0;exitDy=0;" parent="1" source="UWP8bIiaMO9ewAU7Xk2l-534" target="UWP8bIiaMO9ewAU7Xk2l-512" edge="1">
          <mxGeometry width="50" height="50" relative="1" as="geometry">
            <mxPoint x="2284.5" y="-495" as="sourcePoint" />
            <mxPoint x="2284.5" y="-575" as="targetPoint" />
          </mxGeometry>
        </mxCell>
        <mxCell id="UWP8bIiaMO9ewAU7Xk2l-542" value="" style="endArrow=none;html=1;rounded=0;entryX=0.5;entryY=0;entryDx=0;entryDy=0;exitX=0.5;exitY=1;exitDx=0;exitDy=0;" parent="1" source="UWP8bIiaMO9ewAU7Xk2l-511" target="UWP8bIiaMO9ewAU7Xk2l-534" edge="1">
          <mxGeometry width="50" height="50" relative="1" as="geometry">
            <mxPoint x="2284.5" y="-495" as="sourcePoint" />
            <mxPoint x="2444.5" y="-575" as="targetPoint" />
          </mxGeometry>
        </mxCell>
        <mxCell id="UWP8bIiaMO9ewAU7Xk2l-543" value="" style="endArrow=none;html=1;rounded=0;entryX=0.5;entryY=0;entryDx=0;entryDy=0;exitX=0.5;exitY=1;exitDx=0;exitDy=0;" parent="1" source="UWP8bIiaMO9ewAU7Xk2l-511" target="UWP8bIiaMO9ewAU7Xk2l-533" edge="1">
          <mxGeometry width="50" height="50" relative="1" as="geometry">
            <mxPoint x="2284.5" y="-495" as="sourcePoint" />
            <mxPoint x="2444.5" y="-575" as="targetPoint" />
          </mxGeometry>
        </mxCell>
        <mxCell id="UWP8bIiaMO9ewAU7Xk2l-544" value="" style="endArrow=none;html=1;rounded=0;entryX=0.5;entryY=0;entryDx=0;entryDy=0;exitX=0.5;exitY=1;exitDx=0;exitDy=0;" parent="1" source="UWP8bIiaMO9ewAU7Xk2l-515" target="UWP8bIiaMO9ewAU7Xk2l-533" edge="1">
          <mxGeometry width="50" height="50" relative="1" as="geometry">
            <mxPoint x="2124.5" y="-575" as="sourcePoint" />
            <mxPoint x="2444.5" y="-495" as="targetPoint" />
          </mxGeometry>
        </mxCell>
        <mxCell id="UWP8bIiaMO9ewAU7Xk2l-545" value="" style="endArrow=none;html=1;rounded=0;entryX=0.5;entryY=0;entryDx=0;entryDy=0;" parent="1" target="UWP8bIiaMO9ewAU7Xk2l-533" edge="1">
          <mxGeometry width="50" height="50" relative="1" as="geometry">
            <mxPoint x="2434.5" y="-585" as="sourcePoint" />
            <mxPoint x="2444.5" y="-495" as="targetPoint" />
          </mxGeometry>
        </mxCell>
        <mxCell id="UWP8bIiaMO9ewAU7Xk2l-546" style="edgeStyle=orthogonalEdgeStyle;rounded=0;orthogonalLoop=1;jettySize=auto;html=1;exitX=0.5;exitY=1;exitDx=0;exitDy=0;" parent="1" source="UWP8bIiaMO9ewAU7Xk2l-531" target="UWP8bIiaMO9ewAU7Xk2l-531" edge="1">
          <mxGeometry relative="1" as="geometry" />
        </mxCell>
        <mxCell id="UWP8bIiaMO9ewAU7Xk2l-547" value="&lt;font style=&quot;font-size: 24px;&quot;&gt;&lt;b&gt;&lt;font style=&quot;font-size: 24px;&quot;&gt;input&amp;nbsp;&lt;/font&gt;&lt;/b&gt;&lt;b&gt;&lt;font style=&quot;font-size: 24px;&quot;&gt;(16 neurons)&lt;/font&gt;&lt;/b&gt;&lt;/font&gt;" style="text;html=1;align=center;verticalAlign=middle;whiteSpace=wrap;rounded=0;" parent="1" vertex="1">
          <mxGeometry x="2454.5" y="-500" width="360" height="30" as="geometry" />
        </mxCell>
        <mxCell id="UWP8bIiaMO9ewAU7Xk2l-548" value="&lt;span style=&quot;font-size: 28px;&quot;&gt;&lt;b&gt;[X&lt;sub&gt;0&lt;/sub&gt;,&amp;nbsp; &amp;nbsp; &amp;nbsp; &amp;nbsp; &amp;nbsp; &amp;nbsp; &amp;nbsp; &amp;nbsp; &amp;nbsp;X&lt;sub style=&quot;&quot;&gt;n&lt;/sub&gt;,&amp;nbsp; &amp;nbsp; &amp;nbsp; &amp;nbsp; &amp;nbsp; &amp;nbsp; &amp;nbsp; &amp;nbsp;X&lt;sub style=&quot;&quot;&gt;15&lt;/sub&gt;]&lt;/b&gt;&lt;/span&gt;" style="text;html=1;align=center;verticalAlign=middle;whiteSpace=wrap;rounded=0;" parent="1" vertex="1">
          <mxGeometry x="2050" y="-375" width="471" height="30" as="geometry" />
        </mxCell>
        <mxCell id="UWP8bIiaMO9ewAU7Xk2l-549" value="" style="endArrow=none;dashed=1;html=1;dashPattern=1 3;strokeWidth=2;rounded=0;" parent="1" edge="1">
          <mxGeometry width="50" height="50" relative="1" as="geometry">
            <mxPoint x="2154.5" y="-360.5" as="sourcePoint" />
            <mxPoint x="2254.5" y="-360.5" as="targetPoint" />
          </mxGeometry>
        </mxCell>
        <mxCell id="UWP8bIiaMO9ewAU7Xk2l-550" value="" style="endArrow=none;dashed=1;html=1;dashPattern=1 3;strokeWidth=2;rounded=0;" parent="1" edge="1">
          <mxGeometry width="50" height="50" relative="1" as="geometry">
            <mxPoint x="2299" y="-360.5" as="sourcePoint" />
            <mxPoint x="2399" y="-360.5" as="targetPoint" />
          </mxGeometry>
        </mxCell>
        <mxCell id="UWP8bIiaMO9ewAU7Xk2l-551" value="" style="endArrow=classic;html=1;rounded=0;strokeWidth=3;" parent="1" edge="1">
          <mxGeometry width="50" height="50" relative="1" as="geometry">
            <mxPoint x="2114" y="-395" as="sourcePoint" />
            <mxPoint x="2114" y="-455" as="targetPoint" />
          </mxGeometry>
        </mxCell>
        <mxCell id="UWP8bIiaMO9ewAU7Xk2l-552" value="" style="endArrow=classic;html=1;rounded=0;strokeWidth=3;" parent="1" edge="1">
          <mxGeometry width="50" height="50" relative="1" as="geometry">
            <mxPoint x="2274" y="-395" as="sourcePoint" />
            <mxPoint x="2274" y="-455" as="targetPoint" />
          </mxGeometry>
        </mxCell>
        <mxCell id="UWP8bIiaMO9ewAU7Xk2l-553" value="" style="endArrow=classic;html=1;rounded=0;strokeWidth=3;" parent="1" edge="1">
          <mxGeometry width="50" height="50" relative="1" as="geometry">
            <mxPoint x="2434" y="-395" as="sourcePoint" />
            <mxPoint x="2434" y="-455" as="targetPoint" />
          </mxGeometry>
        </mxCell>
        <mxCell id="UWP8bIiaMO9ewAU7Xk2l-554" value="" style="endArrow=classic;html=1;rounded=0;strokeWidth=3;" parent="1" edge="1">
          <mxGeometry width="50" height="50" relative="1" as="geometry">
            <mxPoint x="2174" y="-775" as="sourcePoint" />
            <mxPoint x="2174" y="-835" as="targetPoint" />
          </mxGeometry>
        </mxCell>
        <mxCell id="UWP8bIiaMO9ewAU7Xk2l-555" value="" style="endArrow=classic;html=1;rounded=0;strokeWidth=3;" parent="1" edge="1">
          <mxGeometry width="50" height="50" relative="1" as="geometry">
            <mxPoint x="2274" y="-775" as="sourcePoint" />
            <mxPoint x="2274" y="-835" as="targetPoint" />
          </mxGeometry>
        </mxCell>
        <mxCell id="UWP8bIiaMO9ewAU7Xk2l-556" value="" style="endArrow=classic;html=1;rounded=0;strokeWidth=3;" parent="1" edge="1">
          <mxGeometry width="50" height="50" relative="1" as="geometry">
            <mxPoint x="2374" y="-775" as="sourcePoint" />
            <mxPoint x="2374" y="-835" as="targetPoint" />
          </mxGeometry>
        </mxCell>
        <mxCell id="UWP8bIiaMO9ewAU7Xk2l-557" value="&lt;span style=&quot;font-size: 28px;&quot;&gt;&lt;b&gt;[Y&lt;sub style=&quot;&quot;&gt;0&lt;/sub&gt;,&amp;nbsp; &amp;nbsp; &amp;nbsp; &amp;nbsp; &amp;nbsp;Y&lt;sub style=&quot;&quot;&gt;n&lt;/sub&gt;,&amp;nbsp; &amp;nbsp; &amp;nbsp; &amp;nbsp; &amp;nbsp;Y&lt;sub style=&quot;&quot;&gt;7&lt;/sub&gt;]&lt;/b&gt;&lt;/span&gt;" style="text;html=1;align=center;verticalAlign=middle;whiteSpace=wrap;rounded=0;" parent="1" vertex="1">
          <mxGeometry x="2066.75" y="-895" width="400" height="30" as="geometry" />
        </mxCell>
        <mxCell id="UWP8bIiaMO9ewAU7Xk2l-558" value="" style="endArrow=none;dashed=1;html=1;dashPattern=1 3;strokeWidth=2;rounded=0;" parent="1" edge="1">
          <mxGeometry width="50" height="50" relative="1" as="geometry">
            <mxPoint x="2192" y="-880.23" as="sourcePoint" />
            <mxPoint x="2242" y="-880.23" as="targetPoint" />
          </mxGeometry>
        </mxCell>
        <mxCell id="UWP8bIiaMO9ewAU7Xk2l-559" value="" style="endArrow=none;dashed=1;html=1;dashPattern=1 3;strokeWidth=2;rounded=0;" parent="1" edge="1">
          <mxGeometry width="50" height="50" relative="1" as="geometry">
            <mxPoint x="2294.5" y="-880.23" as="sourcePoint" />
            <mxPoint x="2344.5" y="-880.23" as="targetPoint" />
          </mxGeometry>
        </mxCell>
        <mxCell id="UWP8bIiaMO9ewAU7Xk2l-560" value="&lt;font color=&quot;#000000&quot;&gt;&lt;span style=&quot;font-size: 24px;&quot;&gt;&lt;b&gt;input shape:&amp;nbsp;&amp;nbsp;&lt;/b&gt;&lt;/span&gt;&lt;b style=&quot;font-size: 24px; background-color: initial;&quot;&gt;[(batch_size, 16)]&lt;/b&gt;&lt;/font&gt;" style="text;html=1;align=center;verticalAlign=middle;whiteSpace=wrap;rounded=0;fillColor=#f5f5f5;fontColor=#333333;strokeColor=#666666;" parent="1" vertex="1">
          <mxGeometry x="2532" y="-410" width="400" height="80" as="geometry" />
        </mxCell>
        <mxCell id="UWP8bIiaMO9ewAU7Xk2l-561" value="&lt;font color=&quot;#000000&quot;&gt;&lt;span style=&quot;font-size: 24px;&quot;&gt;&lt;b&gt;output shape:&amp;nbsp;&amp;nbsp;&lt;/b&gt;&lt;/span&gt;&lt;b style=&quot;font-size: 24px; background-color: initial;&quot;&gt;[(batch_size, 8)]&lt;/b&gt;&lt;/font&gt;" style="text;html=1;align=center;verticalAlign=middle;whiteSpace=wrap;rounded=0;fillColor=#f5f5f5;fontColor=#333333;strokeColor=#666666;" parent="1" vertex="1">
          <mxGeometry x="2454.5" y="-920" width="400" height="80" as="geometry" />
        </mxCell>
        <mxCell id="UWP8bIiaMO9ewAU7Xk2l-562" value="&lt;font size=&quot;1&quot; style=&quot;&quot;&gt;&lt;b style=&quot;font-size: 36px;&quot;&gt;fc_encoder_port&lt;/b&gt;&lt;/font&gt;" style="text;html=1;align=center;verticalAlign=middle;whiteSpace=wrap;rounded=0;" parent="1" vertex="1">
          <mxGeometry x="2174.5" y="-256" width="240" height="30" as="geometry" />
        </mxCell>
      </root>
    </mxGraphModel>
  </diagram>
</mxfile>
